<?xml version="1.0" encoding="UTF-8" standalone="no"?>
<svg
   xmlns:dc="http://purl.org/dc/elements/1.1/"
   xmlns:cc="http://creativecommons.org/ns#"
   xmlns:rdf="http://www.w3.org/1999/02/22-rdf-syntax-ns#"
   xmlns:svg="http://www.w3.org/2000/svg"
   xmlns="http://www.w3.org/2000/svg"
   xmlns:sodipodi="http://sodipodi.sourceforge.net/DTD/sodipodi-0.dtd"
   xmlns:inkscape="http://www.inkscape.org/namespaces/inkscape"
   height="512.00012"
   width="511.99908"
   xml:space="preserve"
   viewBox="0 0 511.99908 512.00012"
   y="0px"
   x="0px"
   id="Layer_1"
   version="1.1"
   sodipodi:docname="equipment.svg"
   inkscape:version="0.92.2 (5c3e80d, 2017-08-06)"><sodipodi:namedview
     pagecolor="#ffffff"
     bordercolor="#666666"
     borderopacity="1"
     objecttolerance="10"
     gridtolerance="10"
     guidetolerance="10"
     inkscape:pageopacity="0"
     inkscape:pageshadow="2"
     inkscape:window-width="1920"
     inkscape:window-height="1017"
     id="namedview23"
     showgrid="false"
     fit-margin-top="0"
     fit-margin-left="0"
     fit-margin-right="0"
     fit-margin-bottom="0"
     inkscape:zoom="0.4609375"
     inkscape:cx="256.00019"
     inkscape:cy="256"
     inkscape:window-x="-8"
     inkscape:window-y="-8"
     inkscape:window-maximized="1"
     inkscape:current-layer="Layer_1" /><metadata
     id="metadata43"><rdf:RDF><cc:Work
         rdf:about=""><dc:format>image/svg+xml</dc:format><dc:type
           rdf:resource="http://purl.org/dc/dcmitype/StillImage" /><dc:title></dc:title></cc:Work></rdf:RDF></metadata><defs
     id="defs41" /><g
     id="g6"
     transform="translate(1.9493338e-4,1.4488843e-4)"><g
       id="g4"><path
         id="path2"
         d="M 476.832,35.168 C 450.146,8.484 412.267,-3.664 370.176,0.963 328.709,5.522 288.018,25.886 255.599,58.305 c -29.529,29.53 -49.052,65.922 -55.744,103.513 -7.14,-1.179 -14.725,0.959 -20.221,6.453 l -11.71,11.711 c -5.425,5.427 -7.572,12.889 -6.492,19.949 C 123.978,206.696 87.7,226.205 58.306,255.6 25.887,288.019 5.522,328.71 0.963,370.177 c -4.627,42.094 7.52,79.971 34.205,106.656 22.971,22.97 54.23,35.167 89.34,35.167 5.676,0 11.458,-0.319 17.317,-0.963 41.467,-4.559 82.158,-24.923 114.577,-57.342 30.344,-30.345 49.508,-65.978 55.834,-103.574 0.937,0.114 1.878,0.192 2.82,0.192 5.944,0 11.888,-2.262 16.412,-6.786 l 11.709,-11.71 c 4.372,-4.372 6.78,-10.202 6.78,-16.412 0,-1.078 -0.098,-2.136 -0.24,-3.184 37.755,-6.622 74.36,-26.201 103.977,-55.818 32.419,-32.42 52.782,-73.11 57.342,-114.578 4.626,-42.095 -7.52,-79.972 -34.204,-106.657 z M 245.647,442.941 c -29.982,29.982 -67.445,48.798 -105.487,52.98 -37.416,4.11 -70.884,-6.485 -94.241,-29.843 C -2.765,417.393 7.614,327.796 69.058,266.352 c 28.539,-28.54 63.941,-46.99 100.126,-52.285 l 29.63,29.63 c -36.671,-6.71 -79.901,7.143 -112.584,39.825 -48.173,48.174 -55.458,119.27 -16.24,158.488 16.556,16.555 39.057,25.349 64.299,25.349 4.07,0 8.213,-0.229 12.412,-0.691 29.616,-3.255 58.658,-17.78 81.776,-40.898 32.681,-32.682 46.535,-75.912 39.825,-112.583 l 29.667,29.667 c -4.924,36.192 -22.955,70.721 -52.322,100.087 z M 149.513,290.587 c -12.846,4.088 -24.454,11.015 -33.732,20.292 -14.298,14.299 -23.629,31.971 -26.276,49.764 -2.772,18.635 2.031,35.225 13.523,46.719 9.366,9.366 22.119,14.289 36.606,14.289 3.287,0 6.666,-0.253 10.112,-0.766 17.793,-2.647 35.466,-11.978 49.763,-26.276 18.129,-18.129 22.518,-41.026 23.521,-53.062 1.29,-15.481 -1.367,-29.587 -7.016,-38.609 10.573,1.681 22.61,4.234 36.296,7.891 8.301,32.779 -3.939,73.537 -34.588,104.186 -20.681,20.681 -46.495,33.656 -72.684,36.535 -25.566,2.811 -48.399,-4.397 -64.296,-20.296 -33.288,-33.288 -26.003,-94.736 16.24,-136.979 39.577,-39.576 96.009,-48.468 130.349,-22.06 l 12.452,12.453 c 2.132,2.773 4.031,5.689 5.705,8.729 -42.152,-10.174 -74.385,-11.122 -95.975,-2.81 z m 58.363,49.699 c -0.83,9.962 -4.418,28.87 -19.119,43.571 -12.008,12.009 -26.657,19.818 -41.248,21.987 -13.746,2.047 -25.727,-1.234 -33.728,-9.235 -17.154,-17.154 -11.435,-50.789 12.753,-74.975 8.624,-8.624 18.385,-13.541 26.962,-16.342 0.269,-0.072 0.535,-0.157 0.8,-0.26 6.01,-1.889 11.389,-2.742 15.315,-3.122 15.704,-1.516 27.338,2.408 31.899,6.971 4.121,4.121 7.631,16.232 6.366,31.405 z m 124.548,-19.223 -11.71,11.71 c -3.121,3.121 -8.199,3.119 -11.32,0 h 10e-4 l -58.252,-58.252 c -1.985,-2.514 -4.123,-4.933 -6.428,-7.239 -2.304,-2.304 -4.723,-4.442 -7.237,-6.427 L 179.64,203.016 c -0.54,-1.299 -1.426,-2.398 -2.531,-3.206 -1.4,-2.969 -0.883,-6.625 1.568,-9.077 l 11.71,-11.71 c 2.353,-2.354 5.817,-2.932 8.718,-1.736 0.946,1.771 2.58,3.137 4.585,3.719 l 61.19,61.19 c 0.784,0.852 1.58,1.695 2.404,2.519 0.72,0.72 1.465,1.402 2.206,2.09 l 62.937,62.937 c 1.499,1.499 2.326,3.51 2.326,5.66 -0.002,2.151 -0.827,4.161 -2.329,5.661 z m -5.391,-94.046 c 14.301,0 26.413,-1.968 36.251,-5.906 0.033,-0.013 0.064,-0.03 0.097,-0.045 11.917,-3.975 23.446,-10.555 32.838,-19.946 14.297,-14.298 23.629,-31.97 26.275,-49.763 2.772,-18.636 -2.031,-35.226 -13.523,-46.718 C 397.48,93.147 380.89,88.342 362.252,91.115 c -17.793,2.646 -35.466,11.978 -49.763,26.275 -27.124,27.124 -28.798,71.911 -16.49,91.675 -10.577,-1.681 -22.618,-4.235 -36.311,-7.894 -8.301,-32.779 3.939,-73.536 34.589,-104.185 24.393,-24.394 55.186,-37.129 83.267,-37.129 20.549,0 39.647,6.822 53.712,20.888 33.288,33.289 26.003,94.737 -16.241,136.979 -41.289,41.292 -100.929,49.177 -134.682,18.422 l -4.476,-4.477 c -3.66,-4.017 -6.776,-8.396 -9.35,-13.071 23.221,5.603 43.444,8.419 60.526,8.419 z m -3.792,-98.874 c 12.007,-12.008 26.656,-19.817 41.247,-21.987 2.67,-0.397 5.273,-0.594 7.794,-0.594 10.457,0 19.488,3.382 25.935,9.829 8,8 11.28,19.978 9.234,33.728 -2.171,14.592 -9.979,29.24 -21.987,41.247 -8.626,8.627 -18.391,13.544 -26.969,16.344 -0.247,0.067 -0.494,0.147 -0.739,0.24 -6.03,1.9 -11.43,2.758 -15.368,3.138 -15.714,1.519 -27.338,-2.409 -31.899,-6.97 -9.022,-9.021 -12.127,-50.095 12.752,-74.975 z m 119.7,117.505 c -28.698,28.699 -64.334,47.198 -100.727,52.377 l -29.9,-29.9 c 6.297,1.211 12.785,1.835 19.393,1.835 32.062,0 66.752,-14.172 94.063,-41.483 C 473.943,180.305 481.228,109.208 442.01,69.99 402.791,30.774 331.696,38.06 283.524,86.231 250.59,119.165 236.773,162.814 243.856,199.667 l -29.875,-29.875 c 5.171,-36.397 23.639,-72 52.372,-100.732 61.442,-61.447 151.04,-71.826 199.724,-23.139 48.687,48.686 38.308,138.283 -23.136,199.727 z"
         inkscape:connector-curvature="0"
         style="fill:#ffffff" /></g></g><g
     id="g8"
     transform="translate(1.9493338e-4,1.4488843e-4)" /><g
     id="g10"
     transform="translate(1.9493338e-4,1.4488843e-4)" /><g
     id="g12"
     transform="translate(1.9493338e-4,1.4488843e-4)" /><g
     id="g14"
     transform="translate(1.9493338e-4,1.4488843e-4)" /><g
     id="g16"
     transform="translate(1.9493338e-4,1.4488843e-4)" /><g
     id="g18"
     transform="translate(1.9493338e-4,1.4488843e-4)" /><g
     id="g20"
     transform="translate(1.9493338e-4,1.4488843e-4)" /><g
     id="g22"
     transform="translate(1.9493338e-4,1.4488843e-4)" /><g
     id="g24"
     transform="translate(1.9493338e-4,1.4488843e-4)" /><g
     id="g26"
     transform="translate(1.9493338e-4,1.4488843e-4)" /><g
     id="g28"
     transform="translate(1.9493338e-4,1.4488843e-4)" /><g
     id="g30"
     transform="translate(1.9493338e-4,1.4488843e-4)" /><g
     id="g32"
     transform="translate(1.9493338e-4,1.4488843e-4)" /><g
     id="g34"
     transform="translate(1.9493338e-4,1.4488843e-4)" /><g
     id="g36"
     transform="translate(1.9493338e-4,1.4488843e-4)" /></svg>