<?xml version="1.0" encoding="UTF-8" standalone="no"?>
<svg
   xmlns:dc="http://purl.org/dc/elements/1.1/"
   xmlns:cc="http://creativecommons.org/ns#"
   xmlns:rdf="http://www.w3.org/1999/02/22-rdf-syntax-ns#"
   xmlns:svg="http://www.w3.org/2000/svg"
   xmlns="http://www.w3.org/2000/svg"
   version="1.1"
   id="Capa_1"
   x="0px"
   y="0px"
   viewBox="0 0 252.06259 477.17499"
   xml:space="preserve"
   width="270.45853"
   height="512"><metadata
     id="metadata41"><rdf:RDF><cc:Work
         rdf:about=""><dc:format>image/svg+xml</dc:format><dc:type
           rdf:resource="http://purl.org/dc/dcmitype/StillImage" /><dc:title></dc:title></cc:Work></rdf:RDF></metadata><defs
     id="defs39" /><g
     id="g4"
     transform="rotate(-180,182.30929,238.5875)"><path
       d="m 360.731,229.075 -225.1,-225.1 c -5.3,-5.3 -13.8,-5.3 -19.1,0 -5.3,5.3 -5.3,13.8 0,19.1 l 215.5,215.5 -215.5,215.5 c -5.3,5.3 -5.3,13.8 0,19.1 2.6,2.6 6.1,4 9.5,4 3.4,0 6.9,-1.3 9.5,-4 l 225.1,-225.1 c 5.3,-5.2 5.3,-13.8 0.1,-19 z"
       id="path2"
       style="fill:#22313f" /></g><g
     id="g6"
     transform="translate(-112.556,2e-5)" /><g
     id="g8"
     transform="translate(-112.556,2e-5)" /><g
     id="g10"
     transform="translate(-112.556,2e-5)" /><g
     id="g12"
     transform="translate(-112.556,2e-5)" /><g
     id="g14"
     transform="translate(-112.556,2e-5)" /><g
     id="g16"
     transform="translate(-112.556,2e-5)" /><g
     id="g18"
     transform="translate(-112.556,2e-5)" /><g
     id="g20"
     transform="translate(-112.556,2e-5)" /><g
     id="g22"
     transform="translate(-112.556,2e-5)" /><g
     id="g24"
     transform="translate(-112.556,2e-5)" /><g
     id="g26"
     transform="translate(-112.556,2e-5)" /><g
     id="g28"
     transform="translate(-112.556,2e-5)" /><g
     id="g30"
     transform="translate(-112.556,2e-5)" /><g
     id="g32"
     transform="translate(-112.556,2e-5)" /><g
     id="g34"
     transform="translate(-112.556,2e-5)" /></svg>