<?xml version="1.0" encoding="UTF-8" standalone="no"?>
<svg
   xmlns:dc="http://purl.org/dc/elements/1.1/"
   xmlns:cc="http://creativecommons.org/ns#"
   xmlns:rdf="http://www.w3.org/1999/02/22-rdf-syntax-ns#"
   xmlns:svg="http://www.w3.org/2000/svg"
   xmlns="http://www.w3.org/2000/svg"
   height="512"
   width="358.59744"
   xml:space="preserve"
   viewBox="0 0 38.351016 54.757"
   y="0px"
   x="0px"
   id="Capa_1"
   version="1.1"><metadata
     id="metadata43"><rdf:RDF><cc:Work
         rdf:about=""><dc:format>image/svg+xml</dc:format><dc:type
           rdf:resource="http://purl.org/dc/dcmitype/StillImage" /><dc:title></dc:title></cc:Work></rdf:RDF></metadata><defs
     id="defs41" /><g
     transform="translate(-8.2025522)"
     id="g6"><path
       style="fill:#dadae7"
       id="path2"
       d="m 27.557,12 c -3.859,0 -7,3.141 -7,7 0,3.859 3.141,7 7,7 3.859,0 7,-3.141 7,-7 0,-3.859 -3.141,-7 -7,-7 z m 0,12 c -2.757,0 -5,-2.243 -5,-5 0,-2.757 2.243,-5 5,-5 2.757,0 5,2.243 5,5 0,2.757 -2.243,5 -5,5 z" /><path
       style="fill:#dadae7"
       id="path4"
       d="M 40.94,5.617 C 37.318,1.995 32.502,0 27.38,0 22.257,0 17.442,1.995 13.82,5.617 7.117,12.319 6.284,24.929 12.016,32.569 L 27.38,54.757 42.721,32.6 C 48.476,24.929 47.643,12.319 40.94,5.617 Z M 41.099,31.431 27.38,51.243 13.639,31.4 C 8.44,24.468 9.185,13.08 15.235,7.031 18.479,3.787 22.792,2 27.38,2 c 4.588,0 8.901,1.787 12.146,5.031 6.05,6.049 6.795,17.437 1.573,24.4 z" /></g><g
     transform="translate(-8.2025522)"
     id="g8" /><g
     transform="translate(-8.2025522)"
     id="g10" /><g
     transform="translate(-8.2025522)"
     id="g12" /><g
     transform="translate(-8.2025522)"
     id="g14" /><g
     transform="translate(-8.2025522)"
     id="g16" /><g
     transform="translate(-8.2025522)"
     id="g18" /><g
     transform="translate(-8.2025522)"
     id="g20" /><g
     transform="translate(-8.2025522)"
     id="g22" /><g
     transform="translate(-8.2025522)"
     id="g24" /><g
     transform="translate(-8.2025522)"
     id="g26" /><g
     transform="translate(-8.2025522)"
     id="g28" /><g
     transform="translate(-8.2025522)"
     id="g30" /><g
     transform="translate(-8.2025522)"
     id="g32" /><g
     transform="translate(-8.2025522)"
     id="g34" /><g
     transform="translate(-8.2025522)"
     id="g36" /></svg>