<?xml version="1.0" encoding="UTF-8" standalone="no"?>
<svg
   xmlns:dc="http://purl.org/dc/elements/1.1/"
   xmlns:cc="http://creativecommons.org/ns#"
   xmlns:rdf="http://www.w3.org/1999/02/22-rdf-syntax-ns#"
   xmlns:svg="http://www.w3.org/2000/svg"
   xmlns="http://www.w3.org/2000/svg"
   height="511.91141"
   width="512.0152"
   xml:space="preserve"
   viewBox="0 0 29.735883 29.729855"
   y="0px"
   x="0px"
   id="Capa_1"
   version="1.1"><metadata
     id="metadata49"><rdf:RDF><cc:Work
         rdf:about=""><dc:format>image/svg+xml</dc:format><dc:type
           rdf:resource="http://purl.org/dc/dcmitype/StillImage" /><dc:title></dc:title></cc:Work></rdf:RDF></metadata><defs
     id="defs47" /><g
     transform="translate(1.3142228e-4,-0.00314575)"
     id="g12"><g
       id="g4"><path
         style="fill:#dadae7"
         id="path2"
         d="m 23.895,29.733 c -1.237,0 -2.731,-0.31 -4.373,-0.929 C 15.919,27.445 12.001,24.761 8.487,21.247 4.973,17.733 2.289,13.814 0.93,10.21 -0.307,6.935 -0.31,4.247 0.92,3.017 1.098,2.839 1.279,2.649 1.465,2.454 2.588,1.274 3.887,-0.067 5.538,0.006 c 1.16,0.048 2.283,0.768 3.435,2.198 3.396,4.225 1.865,5.731 0.093,7.477 l -0.314,0.31 c -0.29,0.29 -0.839,1.632 4.26,6.73 1.666,1.665 3.084,2.883 4.217,3.62 0.715,0.464 1.991,1.164 2.514,0.641 l 0.315,-0.318 c 1.744,-1.77 3.25,-3.296 7.474,0.099 1.431,1.15 2.15,2.273 2.198,3.434 0.069,1.682 -1.271,2.954 -2.453,4.076 -0.194,0.185 -0.384,0.364 -0.56,0.54 -0.614,0.613 -1.59,0.92 -2.822,0.92 z M 5.419,1.002 C 4.225,1.002 3.145,2.138 2.19,3.142 1.997,3.344 1.81,3.541 1.627,3.724 0.711,4.639 0.805,7.047 1.865,9.858 c 1.31,3.473 3.913,7.267 7.329,10.683 3.416,3.416 7.209,6.018 10.681,7.328 2.811,1.061 5.219,1.153 6.135,0.236 0.183,-0.182 0.378,-0.368 0.578,-0.558 1.028,-0.977 2.193,-2.083 2.143,-3.311 -0.035,-0.843 -0.649,-1.75 -1.826,-2.695 -3.52,-2.828 -4.503,-1.828 -6.135,-0.176 l -0.32,0.323 c -0.777,0.781 -2.044,0.61 -3.766,-0.51 -1.19,-0.774 -2.664,-2.037 -4.379,-3.751 v 0 C 8.074,13.196 6.72,10.608 8.045,9.282 L 8.364,8.966 C 10.022,7.334 11.022,6.349 8.193,2.829 7.247,1.654 6.34,1.04 5.497,1.004 5.471,1.003 5.444,1.002 5.419,1.002 Z" /></g><g
       id="g10"><path
         style="fill:#dadae7"
         id="path6"
         d="m 24.07,12.29 c -0.063,0 -0.126,-0.012 -0.188,-0.037 -0.256,-0.104 -0.38,-0.395 -0.275,-0.65 C 24.243,10.035 23.879,8.248 22.683,7.051 21.454,5.822 19.565,5.481 17.98,6.193 17.731,6.306 17.432,6.196 17.319,5.944 17.205,5.692 17.316,5.396 17.568,5.283 c 1.961,-0.888 4.3,-0.461 5.822,1.062 1.481,1.481 1.93,3.692 1.143,5.634 -0.078,0.192 -0.266,0.311 -0.463,0.311 z" /><path
         style="fill:#dadae7"
         id="path8"
         d="m 28.534,14.102 c -0.063,0 -0.126,-0.012 -0.188,-0.037 -0.257,-0.104 -0.38,-0.395 -0.275,-0.65 C 29.436,10.048 28.659,6.213 26.09,3.644 23.452,1.006 19.395,0.266 15.995,1.803 15.743,1.913 15.447,1.805 15.333,1.553 15.22,1.3 15.331,1.004 15.583,0.89 c 3.777,-1.706 8.283,-0.885 11.214,2.046 2.854,2.854 3.718,7.114 2.2,10.854 -0.078,0.194 -0.266,0.312 -0.463,0.312 z" /></g></g><g
     transform="translate(1.3142228e-4,-0.00314575)"
     id="g14" /><g
     transform="translate(1.3142228e-4,-0.00314575)"
     id="g16" /><g
     transform="translate(1.3142228e-4,-0.00314575)"
     id="g18" /><g
     transform="translate(1.3142228e-4,-0.00314575)"
     id="g20" /><g
     transform="translate(1.3142228e-4,-0.00314575)"
     id="g22" /><g
     transform="translate(1.3142228e-4,-0.00314575)"
     id="g24" /><g
     transform="translate(1.3142228e-4,-0.00314575)"
     id="g26" /><g
     transform="translate(1.3142228e-4,-0.00314575)"
     id="g28" /><g
     transform="translate(1.3142228e-4,-0.00314575)"
     id="g30" /><g
     transform="translate(1.3142228e-4,-0.00314575)"
     id="g32" /><g
     transform="translate(1.3142228e-4,-0.00314575)"
     id="g34" /><g
     transform="translate(1.3142228e-4,-0.00314575)"
     id="g36" /><g
     transform="translate(1.3142228e-4,-0.00314575)"
     id="g38" /><g
     transform="translate(1.3142228e-4,-0.00314575)"
     id="g40" /><g
     transform="translate(1.3142228e-4,-0.00314575)"
     id="g42" /></svg>