<?xml version="1.0" encoding="UTF-8" standalone="no"?>
<svg
   xmlns:dc="http://purl.org/dc/elements/1.1/"
   xmlns:cc="http://creativecommons.org/ns#"
   xmlns:rdf="http://www.w3.org/1999/02/22-rdf-syntax-ns#"
   xmlns:svg="http://www.w3.org/2000/svg"
   xmlns="http://www.w3.org/2000/svg"
   xmlns:sodipodi="http://sodipodi.sourceforge.net/DTD/sodipodi-0.dtd"
   xmlns:inkscape="http://www.inkscape.org/namespaces/inkscape"
   height="366.64597"
   width="512"
   xml:space="preserve"
   viewBox="0 0 512.001 366.64668"
   y="0px"
   x="0px"
   id="Layer_1"
   version="1.1"
   sodipodi:docname="question.svg"
   inkscape:version="0.92.2 (5c3e80d, 2017-08-06)"><sodipodi:namedview
     pagecolor="#ffffff"
     bordercolor="#666666"
     borderopacity="1"
     objecttolerance="10"
     gridtolerance="10"
     guidetolerance="10"
     inkscape:pageopacity="0"
     inkscape:pageshadow="2"
     inkscape:window-width="751"
     inkscape:window-height="480"
     id="namedview32"
     showgrid="false"
     fit-margin-top="0"
     fit-margin-left="0"
     fit-margin-right="0"
     fit-margin-bottom="0"
     inkscape:zoom="0.4609375"
     inkscape:cx="255.99999"
     inkscape:cy="183.32314"
     inkscape:window-x="0"
     inkscape:window-y="0"
     inkscape:window-maximized="0"
     inkscape:current-layer="Layer_1" /><metadata
     id="metadata61"><rdf:RDF><cc:Work
         rdf:about=""><dc:format>image/svg+xml</dc:format><dc:type
           rdf:resource="http://purl.org/dc/dcmitype/StillImage" /><dc:title></dc:title></cc:Work></rdf:RDF></metadata><defs
     id="defs59" /><g
     id="g6"
     transform="translate(-7.1259168e-6,-72.677319)"><g
       id="g4"><path
         id="path2"
         d="M 478.329,183.82 H 300.803 C 292.903,156.309 277.391,131.227 255.67,111.778 222.748,82.297 180.224,68.762 135.921,73.659 64.871,81.518 8.048,138.871 0.809,210.032 c -3.953,38.846 6.67,77.251 29.909,108.14 22.271,29.6 54.229,50.063 90.203,57.816 l 37.845,37.844 c 3.177,3.178 7.395,4.861 11.698,4.86 2.138,0 4.296,-0.416 6.358,-1.27 6.214,-2.574 10.227,-8.582 10.227,-15.307 V 375.62 c 6.223,-1.391 12.285,-3.155 18.172,-5.257 v 1.05 c 0,18.566 15.105,33.671 33.671,33.671 h 56.539 l 30.119,30.119 c 2.694,2.694 6.269,4.121 9.916,4.121 1.812,0 3.641,-0.353 5.389,-1.076 5.267,-2.182 8.67,-7.275 8.67,-12.976 V 405.084 H 478.33 c 18.566,0 33.671,-15.105 33.671,-33.671 V 217.489 C 512,198.925 496.895,183.82 478.329,183.82 Z M 177.625,361.164 c -3.825,0.682 -6.609,4.007 -6.609,7.892 v 33.06 c 0,0.191 0,0.357 -0.33,0.494 -0.33,0.135 -0.446,0.019 -0.583,-0.115 l -39.539,-39.539 c -1.121,-1.121 -2.55,-1.886 -4.106,-2.194 C 93.374,354.187 63.923,335.638 43.53,308.533 22.725,280.879 13.217,246.474 16.759,211.655 c 3.121,-30.685 17.014,-59.873 39.119,-82.19 22.109,-22.32 51.16,-36.479 81.805,-39.868 5.332,-0.59 10.628,-0.882 15.885,-0.882 33.893,0 65.884,12.154 91.405,35.007 29.082,26.042 45.761,63.35 45.761,102.359 0.001,66.582 -47.568,123.392 -113.109,135.083 z m 318.341,10.25 c 0,9.725 -7.912,17.637 -17.637,17.637 H 341.508 c -4.427,0 -8.017,3.589 -8.017,8.017 v 23.403 L 304.42,391.4 c -1.503,-1.504 -3.542,-2.348 -5.668,-2.348 h -59.859 c -9.725,0 -17.637,-7.912 -17.637,-17.637 v -7.818 c 51.32,-25.224 85.513,-77.856 85.513,-137.515 0,-8.852 -0.781,-17.622 -2.28,-26.228 H 478.33 c 9.725,0 17.637,7.912 17.637,17.637 v 153.923 z"
         inkscape:connector-curvature="0"
         style="fill:#ffffff" /></g></g><g
     id="g12"
     transform="translate(-7.1259168e-6,-72.677319)"><g
       id="g10"><path
         id="path8"
         d="m 449.792,246.027 c -3.13,-3.131 -8.206,-3.131 -11.337,0 l -79.845,79.845 -37.069,-37.069 c -3.131,-3.131 -8.207,-3.131 -11.337,0 -3.131,3.131 -3.131,8.207 0,11.337 l 42.737,42.737 c 1.565,1.565 3.617,2.348 5.668,2.348 2.051,0 4.104,-0.782 5.669,-2.348 l 85.513,-85.513 c 3.132,-3.131 3.132,-8.207 10e-4,-11.337 z"
         inkscape:connector-curvature="0"
         style="fill:#ffffff" /></g></g><g
     id="g18"
     transform="translate(-7.1259168e-6,-72.677319)"><g
       id="g16"><path
         id="path14"
         d="m 153.385,286.464 c -0.003,0 -0.007,0 -0.011,0 -4.427,0 -8.022,3.595 -8.022,8.022 0,0.001 0,0.003 0,0.005 0,0.002 0,0.003 0,0.005 0,4.427 3.595,8.022 8.022,8.022 0.003,0 0.008,0 0.011,0 4.427,0 8.022,-3.595 8.022,-8.022 0,-10e-4 0,-0.003 0,-0.005 0,-0.002 0,-0.003 0,-0.005 0,-4.427 -3.595,-8.022 -8.022,-8.022 z"
         inkscape:connector-curvature="0"
         style="fill:#ffffff" /></g></g><g
     id="g24"
     transform="translate(-7.1259168e-6,-72.677319)"><g
       id="g22"><path
         id="path20"
         d="m 189.094,164.713 c -9.712,-9.712 -22.397,-15.06 -35.719,-15.059 -27.994,0.002 -50.769,22.78 -50.769,50.773 0,4.427 3.589,8.017 8.017,8.017 4.427,0 8.017,-3.589 8.017,-8.017 0,-19.154 15.583,-34.739 34.737,-34.74 9.039,0 17.697,3.679 24.38,10.362 6.683,6.683 10.363,15.342 10.363,24.381 -0.001,15.227 -10.176,28.911 -24.742,33.279 -10.776,3.231 -18.014,12.886 -18.014,24.024 v 2.554 c 0,4.427 3.589,8.017 8.017,8.017 4.427,0 8.017,-3.589 8.017,-8.017 v -2.554 c 0,-4.002 2.647,-7.485 6.587,-8.666 21.295,-6.386 36.169,-26.385 36.17,-48.636 -0.001,-13.321 -5.349,-26.007 -15.061,-35.718 z"
         inkscape:connector-curvature="0"
         style="fill:#ffffff" /></g></g><g
     id="g26"
     transform="translate(-7.1259168e-6,-72.677319)" /><g
     id="g28"
     transform="translate(-7.1259168e-6,-72.677319)" /><g
     id="g30"
     transform="translate(-7.1259168e-6,-72.677319)" /><g
     id="g32"
     transform="translate(-7.1259168e-6,-72.677319)" /><g
     id="g34"
     transform="translate(-7.1259168e-6,-72.677319)" /><g
     id="g36"
     transform="translate(-7.1259168e-6,-72.677319)" /><g
     id="g38"
     transform="translate(-7.1259168e-6,-72.677319)" /><g
     id="g40"
     transform="translate(-7.1259168e-6,-72.677319)" /><g
     id="g42"
     transform="translate(-7.1259168e-6,-72.677319)" /><g
     id="g44"
     transform="translate(-7.1259168e-6,-72.677319)" /><g
     id="g46"
     transform="translate(-7.1259168e-6,-72.677319)" /><g
     id="g48"
     transform="translate(-7.1259168e-6,-72.677319)" /><g
     id="g50"
     transform="translate(-7.1259168e-6,-72.677319)" /><g
     id="g52"
     transform="translate(-7.1259168e-6,-72.677319)" /><g
     id="g54"
     transform="translate(-7.1259168e-6,-72.677319)" /></svg>