<?xml version="1.0" encoding="UTF-8" standalone="no"?>
<svg
   xmlns:dc="http://purl.org/dc/elements/1.1/"
   xmlns:cc="http://creativecommons.org/ns#"
   xmlns:rdf="http://www.w3.org/1999/02/22-rdf-syntax-ns#"
   xmlns:svg="http://www.w3.org/2000/svg"
   xmlns="http://www.w3.org/2000/svg"
   version="1.1"
   id="Capa_1"
   x="0px"
   y="0px"
   viewBox="0 0 56.672001 60"
   xml:space="preserve"
   width="483.60107"
   height="512"><metadata
     id="metadata39"><rdf:RDF><cc:Work
         rdf:about=""><dc:format>image/svg+xml</dc:format><dc:type
           rdf:resource="http://purl.org/dc/dcmitype/StillImage" /><dc:title></dc:title></cc:Work></rdf:RDF></metadata><defs
     id="defs37" /><path
     style="fill:#ffffff"
     d="m 47.273,21.001 8.994,-8.095 c 0.257,-0.229 0.405,-0.561 0.405,-0.906 0,-0.345 -0.148,-0.676 -0.402,-0.902 L 47.273,3.001 H 28 V 1 C 28,0.447 27.552,0 27,0 26.448,0 26,0.447 26,1 V 3.001 H 8.397 c -1.873,0 -3.396,1.523 -3.396,3.396 V 17.603 C 5.001,19.476 6.524,21 8.397,21 h 17.604 v 2 H 9.399 L 0.401,31.098 C 0.146,31.328 0,31.656 0,32 c 0,0.344 0.146,0.672 0.402,0.903 L 9.399,41 H 26 v 18 c 0,0.553 0.448,1 1,1 0.552,0 1,-0.447 1,-1 V 41 H 48.604 C 50.477,41 52,39.477 52,37.604 V 26.396 C 52,24.523 50.477,23 48.604,23 H 28 V 21.001 Z M 50,26.396 v 11.207 c 0,0.771 -0.626,1.396 -1.396,1.396 H 10.167 l -7.778,-7 7.778,-7 H 48.604 C 49.374,25 50,25.626 50,26.396 Z M 7,17.604 V 6.397 C 7,5.626 7.626,5.001 8.396,5.001 h 38.108 l 7.778,7 -7.778,7 H 8.397 C 7.627,19.001 7,18.374 7,17.604 Z"
     id="path2" /><g
     transform="translate(-1.664)"
     id="g4" /><g
     transform="translate(-1.664)"
     id="g6" /><g
     transform="translate(-1.664)"
     id="g8" /><g
     transform="translate(-1.664)"
     id="g10" /><g
     transform="translate(-1.664)"
     id="g12" /><g
     transform="translate(-1.664)"
     id="g14" /><g
     transform="translate(-1.664)"
     id="g16" /><g
     transform="translate(-1.664)"
     id="g18" /><g
     transform="translate(-1.664)"
     id="g20" /><g
     transform="translate(-1.664)"
     id="g22" /><g
     transform="translate(-1.664)"
     id="g24" /><g
     transform="translate(-1.664)"
     id="g26" /><g
     transform="translate(-1.664)"
     id="g28" /><g
     transform="translate(-1.664)"
     id="g30" /><g
     transform="translate(-1.664)"
     id="g32" /></svg>