<?xml version="1.0" encoding="UTF-8" standalone="no"?>
<svg
   xmlns:dc="http://purl.org/dc/elements/1.1/"
   xmlns:cc="http://creativecommons.org/ns#"
   xmlns:rdf="http://www.w3.org/1999/02/22-rdf-syntax-ns#"
   xmlns:svg="http://www.w3.org/2000/svg"
   xmlns="http://www.w3.org/2000/svg"
   height="412.88068"
   width="512.00043"
   xml:space="preserve"
   viewBox="0 0 198.73717 160.26298"
   y="0px"
   x="0px"
   id="Capa_1"
   version="1.1"><metadata
     id="metadata47"><rdf:RDF><cc:Work
         rdf:about=""><dc:format>image/svg+xml</dc:format><dc:type
           rdf:resource="http://purl.org/dc/dcmitype/StillImage" /><dc:title></dc:title></cc:Work></rdf:RDF></metadata><defs
     id="defs45" /><g
     transform="translate(-2.6808336e-4,-19.237)"
     id="g10"><path
       style="fill:#b4b9bd"
       id="path2"
       d="m 197.399,42.479 c -2.36,-3.401 -7.034,-4.247 -10.438,-1.886 l -23.288,16.159 c -2.115,1.467 -3.329,3.916 -3.218,6.487 0.067,1.542 0.1,2.988 0.1,4.42 0,47.603 -36.222,96.84 -96.839,96.84 -12.357,0 -24.497,-2.352 -35.843,-6.889 l 35.939,-10.052 c 3.989,-1.116 6.318,-5.254 5.202,-9.243 -1.116,-3.988 -5.25,-6.318 -9.243,-5.202 L 5.48,148.299 c -2.846,0.796 -4.959,3.189 -5.397,6.112 -0.437,2.922 0.882,5.83 3.37,7.425 18.024,11.555 38.863,17.664 60.263,17.664 42.057,0 68.398,-19.87 83.091,-36.538 18.27,-20.728 28.748,-48.174 28.748,-75.302 0,-0.297 -0.001,-0.594 -0.003,-0.892 l 19.961,-13.85 c 3.402,-2.362 4.247,-7.035 1.886,-10.439 z" /><path
       style="fill:#b4b9bd"
       id="path4"
       d="M 16.555,40.14 92.14,78.455 c 1.072,0.544 2.234,0.811 3.39,0.811 1.646,0 3.282,-0.541 4.629,-1.598 2.293,-1.798 3.337,-4.761 2.677,-7.6 -0.501,-2.154 -0.754,-4.396 -0.754,-6.662 0,-16.083 13.087,-29.168 29.173,-29.168 8.041,0 15.804,3.357 21.296,9.211 2.052,2.188 5.211,2.941 8.031,1.917 L 183.91,36.89 c 3.893,-1.415 5.903,-5.717 4.488,-9.61 -1.414,-3.894 -5.72,-5.901 -9.61,-4.488 l -18.983,6.897 c -7.929,-6.692 -18.083,-10.452 -28.55,-10.452 -22.93,0 -41.835,17.561 -43.972,39.938 L 23.337,26.761 c -3.695,-1.874 -8.208,-0.396 -10.081,3.298 -1.873,3.695 -0.396,8.208 3.299,10.081 z" /><path
       style="fill:#b4b9bd"
       id="path6"
       d="m 12.689,85.053 16.608,4.585 c 0.668,0.185 1.339,0.272 2,0.272 3.289,0 6.307,-2.181 7.225,-5.506 1.103,-3.992 -1.241,-8.123 -5.233,-9.226 L 16.681,70.593 c -3.99,-1.102 -8.123,1.24 -9.226,5.233 -1.102,3.994 1.241,8.124 5.234,9.227 z" /><path
       style="fill:#b4b9bd"
       id="path8"
       d="m 27.25,107.376 c -4.139,0.157 -7.367,3.639 -7.21,7.778 0.153,4.043 3.478,7.216 7.49,7.216 0.096,0 0.192,-0.002 0.288,-0.005 l 16.562,-0.628 c 4.139,-0.157 7.367,-3.639 7.211,-7.779 -0.157,-4.139 -3.648,-7.363 -7.778,-7.21 z" /></g><g
     transform="translate(-2.6808336e-4,-37.868593)"
     id="g12" /><g
     transform="translate(-2.6808336e-4,-37.868593)"
     id="g14" /><g
     transform="translate(-2.6808336e-4,-37.868593)"
     id="g16" /><g
     transform="translate(-2.6808336e-4,-37.868593)"
     id="g18" /><g
     transform="translate(-2.6808336e-4,-37.868593)"
     id="g20" /><g
     transform="translate(-2.6808336e-4,-37.868593)"
     id="g22" /><g
     transform="translate(-2.6808336e-4,-37.868593)"
     id="g24" /><g
     transform="translate(-2.6808336e-4,-37.868593)"
     id="g26" /><g
     transform="translate(-2.6808336e-4,-37.868593)"
     id="g28" /><g
     transform="translate(-2.6808336e-4,-37.868593)"
     id="g30" /><g
     transform="translate(-2.6808336e-4,-37.868593)"
     id="g32" /><g
     transform="translate(-2.6808336e-4,-37.868593)"
     id="g34" /><g
     transform="translate(-2.6808336e-4,-37.868593)"
     id="g36" /><g
     transform="translate(-2.6808336e-4,-37.868593)"
     id="g38" /><g
     transform="translate(-2.6808336e-4,-37.868593)"
     id="g40" /></svg>