<?xml version="1.0" encoding="UTF-8" standalone="no"?>
<svg
   xmlns:dc="http://purl.org/dc/elements/1.1/"
   xmlns:cc="http://creativecommons.org/ns#"
   xmlns:rdf="http://www.w3.org/1999/02/22-rdf-syntax-ns#"
   xmlns:svg="http://www.w3.org/2000/svg"
   xmlns="http://www.w3.org/2000/svg"
   height="15"
   width="24"
   xml:space="preserve"
   viewBox="0 0 24 15"
   y="0px"
   x="0px"
   id="Layer_1"
   version="1.1"><metadata
     id="metadata21"><rdf:RDF><cc:Work
         rdf:about=""><dc:format>image/svg+xml</dc:format><dc:type
           rdf:resource="http://purl.org/dc/dcmitype/StillImage" /><dc:title></dc:title></cc:Work></rdf:RDF></metadata><defs
     id="defs19" /><style
     id="style2"
     type="text/css">
	.st0{stroke:#b4b9bd;stroke-width:0.75;stroke-miterlimit:10;}
</style><g
     transform="matrix(0.9671405,0,0,0.97275422,0.39465967,-3.959814)"
     id="g14"><g
       id="g12"><g
         id="g10"><g
           id="g8"><g
             id="g6"><path
               style="stroke:#b4b9bd;stroke-width:1;stroke-miterlimit:10"
               id="path4"
               d="M 19.5,19 C 19.2,19 18.7,18.9 18.1,18.5 17.6,18.2 17.2,17.7 16.7,17.2 16,16.4 15.4,15.7 14.9,15.9 14.1,16.1 14,17.4 14,18 c 0,0.1 0,0.3 -0.2,0.5 -0.1,0.1 -0.3,0.2 -0.6,0.2 h -1.5 c 0,0 -0.1,0 -0.2,0 -0.8,0 -3.4,-0.2 -5.7,-2.6 C 2.7,13 0.1,6.9 0,6.8 L 0.1,6.2 c 0,0 0,0 0,0 L 0.3,6.1 C 0.5,6 0.7,6 0.8,6 H 4.1 C 4.2,6 4.5,6.1 4.7,6.2 4.9,6.4 5,6.6 5,6.6 c 0,0 0.6,1.4 1.3,2.6 1.3,2.3 2,3 2.6,2.7 C 9.3,11.7 9.5,10.6 9.4,8.5 9.4,8.1 9.3,7.2 9,6.8 8.9,6.6 8.6,6.5 8.4,6.4 L 7.7,6.2 8.2,5.7 C 8.3,5.6 8.4,5.6 8.4,5.5 9,5.3 9.7,5 10.5,5 h 1.2 c 0.6,0 0.9,0.1 1.2,0.2 0.1,0 0.2,0.1 0.3,0.1 0.9,0.3 0.9,1.2 0.8,2.7 0,0.5 0,1 0,1.6 0,0.1 0,0.3 0,0.4 0,0.7 0,1.7 0.5,2 0.3,0.2 0.9,0 2.5,-2.7 0.8,-1.3 1.3,-2.7 1.3,-2.7 0,0 0.1,-0.3 0.3,-0.4 0.1,-0.1 0.3,-0.1 0.4,-0.1 h 0.1 3.6 c 0,0 0.1,0 0.3,0 0.5,0 0.7,0.1 0.8,0.2 l 0.1,0.1 0.1,0.1 c 0.2,0.5 -0.4,1.7 -1.9,3.6 -0.3,0.4 -0.6,0.8 -0.8,1.1 -1.6,2.1 -1.6,2.1 0.1,3.7 1.5,1.4 2.1,2.3 2.4,2.8 0.2,0.3 0.3,0.6 0.1,0.9 -0.2,0.4 -1,0.5 -1,0.5 L 19.6,19 c 0,0 0,0 -0.1,0 z M 15,15 c 0.9,0 1.5,0.7 2.3,1.6 0.4,0.5 0.8,0.9 1.2,1.2 0.5,0.3 0.8,0.3 1,0.3 v 0.4 -0.4 L 22.8,18 c 0.1,0 0.1,0 0.2,0 0,0 0,0 0,-0.1 C 22.8,17.5 22.3,16.7 20.8,15.4 18.7,13.5 18.7,13 20.6,10.6 20.8,10.3 21.1,10 21.4,9.5 22.5,8 22.9,7.3 23,6.9 c -0.1,0 -0.3,0 -0.3,0 H 19 v 0 c -0.1,0.3 -0.6,1.6 -1.3,2.8 -1.6,2.8 -2.5,3.1 -3.1,3.1 -0.2,0 -0.4,-0.1 -0.6,-0.2 -0.9,-0.6 -0.9,-1.8 -0.9,-2.7 0,-0.1 0,-0.3 0,-0.4 0,-0.6 0,-1.1 0,-1.6 0.1,-1.5 0,-1.7 -0.2,-1.7 C 12.7,6.2 12.6,6.1 12.4,6 12.2,5.9 12,5.8 11.6,5.8 H 10.4 C 10,5.8 9.6,5.9 9.3,6 9.4,6.1 9.5,6.2 9.6,6.3 10.1,7 10.1,8.2 10.1,8.5 10.3,10.9 9.9,12.3 9.2,12.7 9,12.8 8.8,12.9 8.6,12.9 7.7,12.9 6.9,12.1 5.5,9.7 4.8,8.4 4.2,7 4.2,7 4.2,7 4.1,6.9 4,6.9 H 1 c 0.6,1.4 2.9,6.1 5.4,8.7 2.1,2.2 4.4,2.3 5.1,2.3 0.1,0 0.1,0 0.2,0 h 1.5 c 0,-0.6 0.2,-2.4 1.5,-2.9 0,0 0.2,0 0.3,0 z"
               class="st0" /></g></g></g></g></g></svg>